<svg xmlns="http://www.w3.org/2000/svg" viewBox="0 0 390 844" width="390" height="844">
  <defs>
    <clipPath id="screen">
      <rect x="6" y="6" width="378" height="832" rx="38"/>
    </clipPath>
  </defs>

  <rect width="390" height="844" rx="44" fill="#1C1C1E"/>

  <g clip-path="url(#screen)">
    <rect x="6" y="6" width="378" height="832" fill="#F6F6F2"/>

    <!-- Status bar -->
    <rect x="6" y="6" width="378" height="52" fill="#6B8F71"/>
    <rect x="22"  y="20" width="28" height="10" rx="3" fill="white" opacity=".6"/>
    <rect x="330" y="20" width="44" height="10" rx="3" fill="white" opacity=".6"/>
    <circle cx="195" cy="26" r="5" fill="#1C1C1E"/>

    <!-- App bar -->
    <rect x="6" y="58" width="378" height="56" fill="white"/>
    <rect x="22" y="76" width="60" height="16" rx="4" fill="#1A2E1C"/>
    <!-- Save button hint -->
    <rect x="296" y="70" width="70" height="28" rx="8" fill="#6B8F71"/>

    <!-- Pending changes banner -->
    <rect x="6" y="114" width="378" height="40" fill="#FFF8EE"/>
    <rect x="22" y="125" width="180" height="12" rx="4" fill="#DDB892"/>

    <!-- Group rows -->
    <!-- Verduras -->
    <rect x="22" y="166" width="346" height="68" rx="12" fill="white"/>
    <circle cx="50" cy="200" r="13" fill="#81A882"/>
    <rect x="74" y="191" width="90" height="13" rx="4" fill="#1A2E1C"/>
    <rect x="74" y="210" width="64" height="10" rx="4" fill="#D0D0D0"/>
    <rect x="244" y="187" width="32" height="32" rx="8" fill="#F0F0F0"/>
    <rect x="282" y="191" width="36" height="24" rx="6" fill="#F6F6F2" stroke="#E0E0E0" stroke-width="1"/>
    <rect x="325" y="187" width="32" height="32" rx="8" fill="#F0F0F0"/>

    <!-- Frutas -->
    <rect x="22" y="242" width="346" height="68" rx="12" fill="white"/>
    <circle cx="50" cy="276" r="13" fill="#E8A87C"/>
    <rect x="74" y="267" width="64" height="13" rx="4" fill="#1A2E1C"/>
    <rect x="74" y="286" width="56" height="10" rx="4" fill="#D0D0D0"/>
    <rect x="244" y="263" width="32" height="32" rx="8" fill="#F0F0F0"/>
    <rect x="282" y="267" width="36" height="24" rx="6" fill="#F6F6F2" stroke="#E0E0E0" stroke-width="1"/>
    <rect x="325" y="263" width="32" height="32" rx="8" fill="#F0F0F0"/>

    <!-- Cereales -->
    <rect x="22" y="318" width="346" height="68" rx="12" fill="white"/>
    <circle cx="50" cy="352" r="13" fill="#D4A853"/>
    <rect x="74" y="343" width="78" height="13" rx="4" fill="#1A2E1C"/>
    <rect x="74" y="362" width="60" height="10" rx="4" fill="#D0D0D0"/>
    <rect x="244" y="339" width="32" height="32" rx="8" fill="#F0F0F0"/>
    <rect x="282" y="343" width="36" height="24" rx="6" fill="#F6F6F2" stroke="#E0E0E0" stroke-width="1"/>
    <rect x="325" y="339" width="32" height="32" rx="8" fill="#F0F0F0"/>

    <!-- Leguminosas -->
    <rect x="22" y="394" width="346" height="68" rx="12" fill="white"/>
    <circle cx="50" cy="428" r="13" fill="#8B6B8A"/>
    <rect x="74" y="419" width="104" height="13" rx="4" fill="#1A2E1C"/>
    <rect x="74" y="438" width="72" height="10" rx="4" fill="#D0D0D0"/>
    <rect x="244" y="415" width="32" height="32" rx="8" fill="#F0F0F0"/>
    <rect x="282" y="419" width="36" height="24" rx="6" fill="#F6F6F2" stroke="#E0E0E0" stroke-width="1"/>
    <rect x="325" y="415" width="32" height="32" rx="8" fill="#F0F0F0"/>

    <!-- AOA -->
    <rect x="22" y="470" width="346" height="68" rx="12" fill="white"/>
    <circle cx="50" cy="504" r="13" fill="#C97878"/>
    <rect x="74" y="495" width="40" height="13" rx="4" fill="#1A2E1C"/>
    <rect x="74" y="514" width="60" height="10" rx="4" fill="#D0D0D0"/>
    <rect x="244" y="491" width="32" height="32" rx="8" fill="#F0F0F0"/>
    <rect x="282" y="495" width="36" height="24" rx="6" fill="#F6F6F2" stroke="#E0E0E0" stroke-width="1"/>
    <rect x="325" y="491" width="32" height="32" rx="8" fill="#F0F0F0"/>

    <!-- Lácteos -->
    <rect x="22" y="546" width="346" height="68" rx="12" fill="white"/>
    <circle cx="50" cy="580" r="13" fill="#7B9EC7"/>
    <rect x="74" y="571" width="68" height="13" rx="4" fill="#1A2E1C"/>
    <rect x="74" y="590" width="56" height="10" rx="4" fill="#D0D0D0"/>
    <rect x="244" y="567" width="32" height="32" rx="8" fill="#F0F0F0"/>
    <rect x="282" y="571" width="36" height="24" rx="6" fill="#F6F6F2" stroke="#E0E0E0" stroke-width="1"/>
    <rect x="325" y="567" width="32" height="32" rx="8" fill="#F0F0F0"/>

    <!-- Grasas -->
    <rect x="22" y="622" width="346" height="68" rx="12" fill="white"/>
    <circle cx="50" cy="656" r="13" fill="#B5A97E"/>
    <rect x="74" y="647" width="58" height="13" rx="4" fill="#1A2E1C"/>
    <rect x="74" y="666" width="50" height="10" rx="4" fill="#D0D0D0"/>
    <rect x="244" y="643" width="32" height="32" rx="8" fill="#F0F0F0"/>
    <rect x="282" y="647" width="36" height="24" rx="6" fill="#F6F6F2" stroke="#E0E0E0" stroke-width="1"/>
    <rect x="325" y="643" width="32" height="32" rx="8" fill="#F0F0F0"/>

    <rect x="100" y="736" width="190" height="14" rx="4" fill="#DCDCDC"/>
    <rect x="130" y="758" width="130" height="10" rx="4" fill="#E8E8E8"/>
  </g>
</svg>
