<svg xmlns="http://www.w3.org/2000/svg" viewBox="0 0 390 844" width="390" height="844">
  <defs>
    <clipPath id="screen">
      <rect x="6" y="6" width="378" height="832" rx="38"/>
    </clipPath>
  </defs>

  <rect width="390" height="844" rx="44" fill="#1C1C1E"/>

  <g clip-path="url(#screen)">
    <rect x="6" y="6" width="378" height="832" fill="#F6F6F2"/>

    <!-- Status bar -->
    <rect x="6" y="6" width="378" height="52" fill="#6B8F71"/>
    <rect x="22"  y="20" width="28" height="10" rx="3" fill="white" opacity=".6"/>
    <rect x="330" y="20" width="44" height="10" rx="3" fill="white" opacity=".6"/>
    <circle cx="195" cy="26" r="5" fill="#1C1C1E"/>

    <!-- App bar -->
    <rect x="6" y="58" width="378" height="56" fill="white"/>
    <rect x="22" y="76" width="96" height="16" rx="4" fill="#1A2E1C"/>

    <!-- Search bar -->
    <rect x="22" y="126" width="346" height="46" rx="12" fill="white"/>
    <rect x="54"  y="143" width="160" height="12" rx="4" fill="#E0E0E0"/>
    <circle cx="40" cy="149" r="8" fill="#D0D0D0"/>

    <!-- Meal type selector -->
    <rect x="22" y="184" width="346" height="56" rx="12" fill="white"/>
    <rect x="32"  y="196" width="54" height="28" rx="10" fill="#6B8F71"/>
    <rect x="94"  y="196" width="54" height="28" rx="10" fill="#F0F0F0"/>
    <rect x="156" y="196" width="54" height="28" rx="10" fill="#F0F0F0"/>
    <rect x="218" y="196" width="54" height="28" rx="10" fill="#F0F0F0"/>
    <rect x="280" y="196" width="54" height="28" rx="10" fill="#F0F0F0"/>

    <!-- Food list items -->
    <!-- Item 1 -->
    <rect x="22" y="252" width="346" height="72" rx="12" fill="white"/>
    <circle cx="52" cy="288" r="14" fill="#D4A853"/>
    <rect x="76" y="274" width="140" height="14" rx="4" fill="#1A2E1C"/>
    <rect x="76" y="296" width="100" height="11" rx="4" fill="#D0D0D0"/>
    <rect x="334" y="280" width="22" height="22" rx="6" fill="#E8F4EA"/>

    <!-- Item 2 -->
    <rect x="22" y="332" width="346" height="72" rx="12" fill="white"/>
    <circle cx="52" cy="368" r="14" fill="#81A882"/>
    <rect x="76" y="354" width="120" height="14" rx="4" fill="#1A2E1C"/>
    <rect x="76" y="376" width="88" height="11" rx="4" fill="#D0D0D0"/>
    <rect x="334" y="360" width="22" height="22" rx="6" fill="#E8F4EA"/>

    <!-- Item 3 -->
    <rect x="22" y="412" width="346" height="72" rx="12" fill="white"/>
    <circle cx="52" cy="448" r="14" fill="#7B9EC7"/>
    <rect x="76" y="434" width="156" height="14" rx="4" fill="#1A2E1C"/>
    <rect x="76" y="456" width="96" height="11" rx="4" fill="#D0D0D0"/>
    <rect x="334" y="440" width="22" height="22" rx="6" fill="#E8F4EA"/>

    <!-- Item 4 -->
    <rect x="22" y="492" width="346" height="72" rx="12" fill="white"/>
    <circle cx="52" cy="528" r="14" fill="#E8A87C"/>
    <rect x="76" y="514" width="108" height="14" rx="4" fill="#1A2E1C"/>
    <rect x="76" y="536" width="80"  height="11" rx="4" fill="#D0D0D0"/>
    <rect x="334" y="520" width="22" height="22" rx="6" fill="#E8F4EA"/>

    <!-- Item 5 -->
    <rect x="22" y="572" width="346" height="72" rx="12" fill="white"/>
    <circle cx="52" cy="608" r="14" fill="#C97878"/>
    <rect x="76" y="594" width="130" height="14" rx="4" fill="#1A2E1C"/>
    <rect x="76" y="616" width="92"  height="11" rx="4" fill="#D0D0D0"/>
    <rect x="334" y="600" width="22" height="22" rx="6" fill="#E8F4EA"/>

    <!-- FAB -->
    <circle cx="335" cy="750" r="28" fill="#6B8F71"/>
    <rect x="322" y="737" width="26" height="4" rx="2" fill="white"/>
    <rect x="333" y="726" width="4" height="26" rx="2" fill="white"/>

    <rect x="100" y="796" width="190" height="14" rx="4" fill="#DCDCDC"/>
    <rect x="130" y="818" width="130" height="10" rx="4" fill="#E8E8E8"/>
  </g>
</svg>
